<?xml version="1.0" encoding="utf-8"?>
<!DOCTYPE svg PUBLIC "-//W3C//DTD SVG 1.1//EN" "http://www.w3.org/Graphics/SVG/1.1/DTD/svg11.dtd" []>
<svg version="1.1" id="icons" xmlns="http://www.w3.org/2000/svg" xmlns:xlink="http://www.w3.org/1999/xlink" width="96" height="60" viewBox="0 0 96 60">
  <defs>
    <style type="text/css"><![CDATA[
      svg > g {
        display: none;
      }
      svg > g:target {
        display: inherit;
      }
    ]]></style>
  </defs>
  <g id="us" fill="none" fill-rule="evenodd">
    <path d="M0 0h96v60H0V0z" fill="#F3F1F1"/>
    <path d="M0 0h96v4.615H0V0zM0 9.23h96v4.616H0V9.23zM0 46.154h96v4.615H0v-4.616zM0 36.923h96v4.615H0v-4.615zM0 27.692h96v4.616H0v-4.616zM0 18.462h96v4.615H0v-4.615zM0 55.385h96V60H0v-4.615z" fill="#BE2534"/>
    <path d="M0 0h45.12v32.308H0V0z" fill="#35335D"/>
    <g transform="translate(3.805 2.746)" fill="#FFF">
      <circle cx="1.5" cy="1.5" r="1.5"/>
      <circle cx="1.5" cy="9.5" r="1.5"/>
      <circle cx="1.5" cy="17.5" r="1.5"/>
      <circle cx="1.5" cy="25.5" r="1.5"/>
      <circle cx="8.5" cy="25.5" r="1.5"/>
      <circle cx="15.5" cy="25.5" r="1.5"/>
      <circle cx="22.5" cy="25.5" r="1.5"/>
      <circle cx="29.5" cy="25.5" r="1.5"/>
      <circle cx="36.5" cy="25.5" r="1.5"/>
      <circle cx="8.5" cy="17.5" r="1.5"/>
      <circle cx="15.5" cy="17.5" r="1.5"/>
      <circle cx="22.5" cy="17.5" r="1.5"/>
      <circle cx="29.5" cy="17.5" r="1.5"/>
      <circle cx="36.5" cy="17.5" r="1.5"/>
      <circle cx="8.5" cy="9.5" r="1.5"/>
      <circle cx="15.5" cy="9.5" r="1.5"/>
      <circle cx="22.5" cy="9.5" r="1.5"/>
      <circle cx="29.5" cy="9.5" r="1.5"/>
      <circle cx="36.5" cy="9.5" r="1.5"/>
      <circle cx="5.5" cy="5.5" r="1.5"/>
      <circle cx="5.5" cy="13.5" r="1.5"/>
      <circle cx="5.5" cy="21.5" r="1.5"/>
      <circle cx="12.5" cy="21.5" r="1.5"/>
      <circle cx="19.5" cy="21.5" r="1.5"/>
      <circle cx="26.5" cy="21.5" r="1.5"/>
      <circle cx="33.5" cy="21.5" r="1.5"/>
      <circle cx="12.5" cy="13.5" r="1.5"/>
      <circle cx="19.5" cy="13.5" r="1.5"/>
      <circle cx="26.5" cy="13.5" r="1.5"/>
      <circle cx="33.5" cy="13.5" r="1.5"/>
      <circle cx="12.5" cy="5.5" r="1.5"/>
      <circle cx="19.5" cy="5.5" r="1.5"/>
      <circle cx="26.5" cy="5.5" r="1.5"/>
      <circle cx="33.5" cy="5.5" r="1.5"/>
      <circle cx="8.5" cy="1.5" r="1.5"/>
      <circle cx="15.5" cy="1.5" r="1.5"/>
      <circle cx="22.5" cy="1.5" r="1.5"/>
      <circle cx="29.5" cy="1.5" r="1.5"/>
      <circle cx="36.5" cy="1.5" r="1.5"/>
    </g>
  </g>
  <g id="ae" fill="none" fill-rule="evenodd">
    <path d="M0 0h96v60H0V0z" fill="#F1EFF0"/>
    <path d="M0 0h24v60H0V0z" fill="#DA2F2A"/>
    <path d="M24 39.692h72V60H24V39.692z" fill="#0A0B09"/>
    <path d="M24 0h72v20.308H24V0z" fill="#0E9446"/>
  </g>
  <g id="at" fill="none" fill-rule="evenodd">
    <path d="M0 20.308h96v19.384H0V20.308z" fill="#F2F0F0"/>
    <path d="M0 0h96v20.308H0V0zM0 39.692h96V60H0V39.692z" fill="#DA2F2A"/>
  </g>
  <g id="au" fill="none" fill-rule="evenodd">
    <path d="M0 0h96v60H0V0z" fill="#282A68"/>
    <path d="M8.833 39.94l5.435 1.79 1.756-5.078 2.08 5.08 5.593-1.793-3.195 4.48 4.953 2.99-5.594.447.48 5.526-4.316-3.883-3.994 4.182.8-5.676-6.075-.45 5.115-2.837-3.037-4.78M56.027 23.974l2.774.916.898-2.594 1.062 2.594 2.855-.916-1.632 2.288 2.53 1.526-2.856.228.245 2.822-2.204-1.982-2.04 2.135.41-2.896-3.103-.23 2.61-1.45-1.548-2.44M71.85 7.692l2.774.914.897-2.593 1.06 2.593 2.858-.914-1.63 2.288 2.53 1.525-2.857.23.246 2.82-2.205-1.983-2.038 2.136.408-2.898-3.102-.228 2.61-1.45-1.548-2.44M86.07 19.93l2.775.914.897-2.592 1.062 2.592 2.856-.915-1.633 2.287 2.53 1.525-2.856.23.246 2.82-2.204-1.982-2.04 2.136.408-2.898-3.102-.23 2.613-1.45-1.55-2.44M71.845 47.714l2.774.916.898-2.594 1.06 2.594 2.856-.916-1.63 2.288 2.527 1.526-2.855.228.246 2.822-2.202-1.982-2.04 2.136.407-2.9-3.1-.228 2.61-1.45-1.55-2.44M79.558 32.246h1.84l.72-1.57.638 1.494h1.758l-1.28 1.27.48 1.793-1.52-.97-1.596.97.398-1.643-1.438-1.344" fill="#F2F0F0"/>
    <g>
      <path d="M0 0h48v29.538H0V0z" fill="#282A68"/>
      <path d="M27.986 0v8.987L42.606 0H48v3.39L37.452 9.944H48v9.723H37.452L48 26.224l-.025 3.295-5.428.018-14.56-8.986v8.986h-7.973v-8.986l-14.56 8.986H0v-3.314l10.668-6.556H0V9.87h10.668L.018 3.39.014.01l5.44.014 14.56 9.037V0h7.973" fill="#F2F0F0"/>
      <g fill="#DA2F33">
        <path d="M48 11.746H26.387V0h-4.793v11.746H0v5.897h21.594v11.895h4.793V17.643H48v-5.897"/>
        <path d="M47.995 27.41L35.49 19.994h-3.33L48 29.538l-.005-2.13zM0 29.538h3.38l15.82-9.46-3.614-.083L0 29.538M0 2.107V0l15.84 9.543H12.6L0 2.107M48 0h-3.555L28.8 9.543h3.362L48 0"/>
      </g>
    </g>
  </g>
  <g id="be" fill="none" fill-rule="evenodd">
    <path d="M0 0h96v60H0V0z" fill="#F8B938"/>
    <path d="M0 0h31.68v60H0V0z" fill="#434B58"/>
    <path d="M64.32 0H96v60H64.32V0z" fill="#DA2F2A"/>
  </g>
  <g id="br" fill="none" fill-rule="evenodd">
    <path d="M0 0h96v60H0V0z" fill="#009448"/>
    <path d="M8.64 30L48.332 5.54 88.157 29.87 48.465 54.463 8.64 30.002" fill="#F8B938"/>
    <g transform="translate(31.64 13.538)">
      <circle fill="#232D5A" cx="16.5" cy="16.5" r="16.5"/>
      <path d="M1.136 10.462S4.018 8.687 18.03 12.53c14.01 3.843 14.757 6.594 14.757 6.594l-.62 2.696s-1.068-3.098-14.833-6.697c-13.764-3.6-17.02-2.01-17.02-2.01l.822-2.65z" fill="#FFFFFE"/>
    </g>
  </g>
  <g id="ca" fill="none" fill-rule="evenodd">
    <path d="M0 0h96v60H0V0z" fill="#F2F0F0"/>
    <path d="M0 0h24v60H0V0zM72 0h24v60H72V0zM46.277 14.736L48 12l3.446 5.582s.29.584 1.23.293l2.79-1.278-1.723 8.428s-.37 1.24.33 1.423c0 0 .45.33 1.147-.437l4.185-4.195.657 2.006s.37.712 1.476.55c1.325-.198 1.1-.28 4.882-.84l-1.558 4.816s-.41.92.094 1.225l2.244.928-9.23 6.713s-.574.513-.41 1.205l.82 2.19-8.78-.986s-.892-.146-1.15.584l.247 8.683-1.6.036.452-8.574s.04-.876-1.027-.767l-8.903 1.06.74-2.154s.102-.823-.248-1.205l-9.312-6.75 2.134-.912s.513-.165.286-.95l-1.64-5.18 4.963.912s1.07.22 1.395-.365c.29-.512.616-2.225.616-2.225l4.39 4.342s.564.51 1.19.22c0 0 .33-.115.246-.73-.318-2.286-1.93-9.05-1.93-9.05l2.546 1.168s.985.51 1.477-.073l1.804-2.956" fill="#DA2F33"/>
  </g>
  <g id="ch" fill="none" fill-rule="evenodd">
    <path d="M0 0h96v60H0V0z" fill="#DA2F2A"/>
    <path d="M68.684 24.436H54.55V11.158H42.58v13.278H28.444V35.69H42.58v13.28h11.97V35.69h14.134V24.437" fill="#F3F1F1"/>
  </g>
  <g id="de" fill="none" fill-rule="evenodd">
    <path d="M0 20.308h96v19.384H0V20.308z" fill="#DA2F2A"/>
    <path d="M0 0h96v20.308H0V0z" fill="#434B58"/>
    <path d="M0 39.692h96V60H0V39.692z" fill="#F8B938"/>
  </g>
  <g id="dk" fill="none" fill-rule="evenodd">
    <path d="M0 0h96v60H0V0z" fill="#DA2F2A"/>
    <path d="M96 25.532H32.914V0h-10.97v25.532H0v10.213h21.943V60h10.97V35.745H96V25.532" fill="#FFF"/>
  </g>
  <g id="es" fill="none" fill-rule="evenodd">
    <path d="M0 15h96v30H0V15z" fill="#F6BB26"/>
    <path d="M0 0h96v15H0V0zM0 45h96v15H0V45z" fill="#D3232A"/>
    <g transform="translate(19 21)">
      <path fill="#C8C8C3" d="M1 8h2v9H1z"/>
      <path fill="#C7AD33" d="M1 5h2v2H1z"/>
      <path fill="#B8252A" d="M1 4h2v1H1zM21 4h2v1h-2zM6 1s4.025-1 6.038-1C14.025 0 18 1 18 1v2s-3.99 2-5.983 2C10.01 5 6 3 6 3V1z"/>
      <path d="M7.223 3.627s3.234-1.357 4.963-1.357c1.604 0 4.67 1.357 4.67 1.357l-1.657.595s-2.058-.847-3.014-.847c-1.044 0-3.327.847-3.327.847l-1.637-.595z" fill="#C7AD33"/>
      <path fill="#0A5496" d="M0 18h4v1H0z"/>
      <path fill="#0A5496" d="M0 18h4v1H0zM20 18h4v1h-4z"/>
      <circle fill="#0A5496" cx="12" cy="13" r="1"/>
      <path fill="#FFF" d="M0 19h4v1H0zM20 19h4v1h-4z"/>
      <path fill="#C7AD33" d="M21 5h2v2h-2z"/>
      <path fill="#C8C8C3" d="M21 8h2v9h-2z"/>
      <path fill="#B8252A" d="M6 6h6v7H6z"/>
      <path fill="#C8C8C3" d="M12 6h6v7h-6z"/>
      <path d="M6 17.516V13h6v4.233c0 2-1.97 2.767-2.956 2.767C8.03 20 6 18.996 6 17.516z" fill="#C7AD33"/>
      <path fill="#B8252A" d="M7 13h1v6H7zM10 13h1v6h-1zM12 17.516V13h6v4.233c0 2-1.97 2.767-2.956 2.767C14.03 20 12 18.996 12 17.516z"/>
      <path fill="#C7AD33" d="M13 14h1v4h-1zM16 14h1v4h-1zM7 11h4v1H7zM8 7h2v4H8z"/>
      <path fill="#E46E9D" d="M14 7h2v4h-2z"/>
      <path fill="#C7AD33" d="M14 18h2v1h-2z"/>
    </g>
  </g>
  <g id="fi" fill="none" fill-rule="evenodd">
    <path d="M0 0h96v60H0V0z" fill="#F2F0F0"/>
    <path d="M96 25.532H32.914V0h-10.97v25.532H0v10.213h21.943V60h10.97V35.745H96V25.532" fill="#282B69"/>
  </g>
  <g id="fr" fill="none" fill-rule="evenodd">
    <path d="M0 0h96v60H0V0z" fill="#F2F0F0"/>
    <path d="M0 0h31.68v60H0V0z" fill="#2A4086"/>
    <path d="M64.32 0H96v60H64.32V0z" fill="#DA2F2A"/>
  </g>
  <g id="gb" fill="none" fill-rule="evenodd">
    <path d="M0 0h96v60H0V0z" fill="#282A68"/>
    <path d="M55.97 0v18.255L85.215 0H96v6.884L74.904 20.2H96v19.75H74.904L96 53.268l-.05 6.694-10.856.04L55.97 41.746V60H40.03V41.746L10.904 60H0v-6.733L21.335 39.95H0v-19.9h21.335L.038 6.883.026.022l10.88.027 29.123 18.356V0h15.94" fill="#F2F0F0"/>
    <g fill="#DA2F33">
      <path d="M96 23.858H52.774V0h-9.586v23.858H0v11.98h43.188V60h9.586V35.838H96v-11.98"/>
      <path d="M95.99 55.675l-25.01-15.06h-6.66L96 60l-.01-4.325zM0 60h6.76L38.4 40.78l-7.227-.165L0 60M0 4.28V0l31.68 19.385h-6.478L0 4.28M96 0h-7.11L57.6 19.385h6.724L96 0"/>
    </g>
  </g>
  <g id="hk" fill="none" fill-rule="evenodd">
    <path d="M0 0h96v60H0V0z" fill="#DA2F2A"/>
    <path d="M49.32 30.878c1.06 5.98-4.68 7.944-4.68 7.944l-.082-.228c3.72-1.583 4.555-4.203 4.614-6 .037-1.118-.244-1.932-.244-1.932.26 1.966-1.32 3.16-1.32 3.16-1.847 1.34-3.76.85-3.76.85-1.393-.353-2.97.424-2.97.424-1.752.848-2.663 2.055-2.693 3.042-.02.668-.205 1.346-.41 1.752-1.1 2.167-3.67 1.64-3.67 1.64 4.773 3.618 9.752 2.404 12.252.742 6.902-4.586 2.962-11.394 2.962-11.394zm-6.154 8.715l-.655.923-.24-1.098-1.09-.234 1.016-.523-.057-1.08.848.736 1.08-.404-.5 1.028.764.793-1.166-.14z" fill="#FFF"/><path d="M38.463 29.095l.243-.196s3.954 4.5 9.405 1.45c0 0-3.218 1.354-5.18-1.82-.167-.27-.42-.904-.435-1.18-.052-1-.332-2.028-2.246-3.416 0 0-1.577-1.134-3.32-.74-4.086.93-4.514-2.57-4.514-2.57-3.1 7.5 3.767 11.522 3.767 11.522 6.804 3.863 11.81-1.414 11.81-1.414s-4.89 2.914-9.53-1.637zm-.985.014l-.25-1.098-1.092-.228 1.012-.53-.066-1.08.854.73 1.076-.412-.492 1.034.773.785-1.168-.128-.647.927z" fill="#FFF"/>
    <path d="M51.327 15.904c-.503-2.353 1.897-3.36 1.897-3.36-6.145-.248-9.362 3.5-10.306 6.226-2.605 7.523 4.91 10.794 4.91 10.794-4.674-4.21-1.324-8.98-1.324-8.98l.21.137c-1.97 3.34-.967 5.907.136 7.385a6.57 6.57 0 0 0 1.43 1.413c-1.464-1.433-.96-3.268-.96-3.268.624-2.107 2.472-2.778 2.472-2.778 1.344-.492 2.112-1.993 2.112-1.993.863-1.66.823-3.135.215-3.943-.41-.545-.698-1.195-.793-1.633zm-3.174 4.164l-.61.925-.255-1.103-1.12-.21 1.025-.537-.066-1.105.897.746 1.023-.418-.48.984.737.837-1.15-.12z" fill="#FFF"/>
    <path d="M57.528 21.322c-7.935.628-8.64 7.644-8.64 7.644s2.104-5.047 8.728-3.927l-.072.29s-6.038-1.454-8.51 4.01c0 0 1.742-2.867 5.332-1.385.306.127.912.498 1.098.713.676.78 1.552 1.456 3.975 1.522 0 0 1.99.047 3.144-1.23 2.712-3.003 5.272-.413 5.272-.413-2.24-7.762-10.328-7.225-10.328-7.225zm1.9 5.194l-.61.926-.256-1.104-1.12-.21 1.025-.537-.064-1.104.895.747 1.025-.418-.48.987.736.835-1.153-.12z" fill="#FFF"/>
    <path d="M60.448 35.794c-2.64-7.513-10.78-6.026-10.78-6.026 6.436.835 6.738 6.53 6.738 6.53l-.256.005c-.514-3.783-2.947-5.307-4.77-5.895-1.133-.363-2.048-.356-2.048-.356 2.088.355 2.84 2.114 2.84 2.114.824 2.045-.247 3.603-.247 3.603-.774 1.136-.448 2.77-.448 2.77.347 1.816 1.31 2.985 2.312 3.306.677.215 1.317.582 1.67.885 1.89 1.625.588 3.757.588 3.757 5.12-3.176 5.357-7.97 4.4-10.693zm-4.107 2.793l-.562.9-.234-1.06-1.123-.27 1.008-.537-.093-1.083.904.753 1.036-.446-.488.996.75.86-1.197-.113z" fill="#FFF"/>
  </g>
  <g id="in" stroke="none" stroke-width="1" fill="none" fill-rule="evenodd">
    <path d="M0,19.6875 L96,19.6875 L96,40.3125 L0,40.3125 L0,19.6875 Z" id="Fill-443" fill="#F2F0F0"/>
    <path d="M0,0 L96,0 L96,19.6875 L0,19.6875 L0,0 Z" id="Fill-444" fill="#EC9141"/>
    <path d="M0,40.3125 L96,40.3125 L96,60 L0,60 L0,40.3125 Z" id="Fill-445" fill="#1F8040"/>
      <g transform="translate(40.000000, 22.000000)">
        <circle stroke="#282862" fill="#FFFFFF" cx="8" cy="8" r="8"/>
        <circle fill="#282862" cx="8" cy="8" r="3"/>
        <path d="M8,0.5 L8,15.5" stroke="#282862" stroke-linecap="square"/>
        <path d="M10.9304835,1.0962136 L5.06951654,14.9037864" stroke="#282862" stroke-linecap="square"/>
        <path d="M14.9538789,5.19045055 L1.04612109,10.8095495" stroke="#282862" stroke-linecap="square"/>
        <path d="M11.1631028,15.1003255 L5.54400394,1.1925677" stroke="#282862" stroke-linecap="square"/>
        <path d="M15.099152,10.970231 L1.29157916,5.10926411" stroke="#282862" stroke-linecap="square"/>
        <path d="M13.3033009,2.69669914 L2.69669914,13.3033009" stroke="#282862" stroke-linecap="square"/>
        <path d="M13.6568542,13.4497475 L3.05025253,2.84314575" stroke="#282862" stroke-linecap="square"/>
        <path d="M15.5,8 L0.5,8" stroke="#282862" stroke-linecap="square"/>
    </g>
  </g>
  <g id="il" fill="none" fill-rule="evenodd">
    <path d="M0 0h96v60H0V0z" fill="#F1EFF0"/>
    <path d="M0 44.308h96v10.154H0V44.308zM0 5.538h96v10.154H0V5.538z" fill="#294086"/>
    <g fill="#294086">
      <path d="M47.49 18.707l-10.623 17.94h21.365L47.49 18.708zm.022 3.716l7.396 12.344H40.19l7.322-12.344z"/>
      <path d="M58.232 24.628H36.867l10.623 17.94 10.742-17.94zm-18.042 1.88h14.718l-7.396 12.345-7.322-12.345z"/>
    </g>
  </g>
  <g id="ie" fill="none" fill-rule="evenodd">
    <path d="M0 0h96v60H0V0z" fill="#F2F0F0"/>
    <path d="M0 0h31.68v60H0V0z" fill="#0E9446"/>
    <path d="M64.32 0H96v60H64.32V0z" fill="#EC9141"/>
  </g>
  <g id="it" fill="none" fill-rule="evenodd">
    <path d="M0 0h96v60H0V0z" fill="#F2F0F0"/>
    <path d="M0 0h31.68v60H0V0z" fill="#0E9446"/>
    <path d="M64.32 0H96v60H64.32V0z" fill="#DA2F2A"/>
  </g>
  <g id="jp" fill="none" fill-rule="evenodd">
    <path d="M0 0h96v60H0V0z" fill="#F2F0F0"/>
    <path d="M67.2 30.462C67.2 20.265 58.603 12 48 12c-10.604 0-19.2 8.265-19.2 18.462 0 10.194 8.596 18.46 19.2 18.46 10.603 0 19.2-8.266 19.2-18.46" fill="#DA2F2A"/>
  </g>
  <g id="kr" fill="none" fill-rule="evenodd">
    <path d="M0 0h96v60H0V0z" fill="#F2F0F0"/>
    <path d="M65.06 29.71c0-8.726-7.266-15.8-16.23-15.8-6.333 0-11.816 3.53-14.494 8.677-.408 1.55-.702 3.892.294 6.073 0 0 2.062 4.47 7.498 4.655 0 0 3.702.18 6.232-2.966 0 0 .61-.777 1.22-1.506 0 0 2.623-3.285 7.59-2.42 0 0 4.685.64 6.186 5.52 0 0 .63 1.698.01 4.8a15.392 15.392 0 0 0 1.695-7.034" fill="#DA2F2A"/>
    <path d="M32.626 29.703c0 8.726 7.267 15.8 16.232 15.8 6.33 0 11.815-3.53 14.492-8.677.41-1.553.702-3.894-.293-6.075 0 0-2.063-4.47-7.498-4.652 0 0-3.703-.183-6.234 2.965 0 0-.608.776-1.218 1.506 0 0-2.624 3.282-7.59 2.416 0 0-4.687-.638-6.186-5.518 0 0-.63-1.698-.01-4.8a15.387 15.387 0 0 0-1.696 7.035" fill="#23335E"/>
    <path d="M26.284 6.744l-8.622 12.354-2.026-1.263 8.62-12.354 2.028 1.264M29.562 8.81L20.94 21.16 18.91 19.9l8.623-12.353 2.027 1.262M32.886 10.916L24.16 23.2l-2.017-1.278L30.87 9.637l2.016 1.28M26.332 52.376l-8.728-12.288-2.016 1.28 8.727 12.286 2.017-1.278M32.886 48.246L24.16 35.96l-2.017 1.28 8.728 12.284 2.016-1.278M77.866 20.077L69.15 7.597l-2.078 1.436 8.715 12.482 2.08-1.438M22.718 44.936l-4.01-5.69 2.14-1.346 4.01 5.69-2.14 1.346M67.692 16.55l-4.01-5.692 2.14-1.347 4.012 5.692-2.142 1.347M72.427 23.43l-4.01-5.69 2.14-1.347 4.01 5.69-2.14 1.347M74.248 12.42l-4.01-5.69 2.14-1.347 4.01 5.69-2.14 1.347M78.982 19.302l-4.01-5.69 2.14-1.348 4.01 5.69-2.14 1.348M27.45 51.646l-4.008-5.69 2.14-1.346 4.01 5.69-2.14 1.346M74.52 37.082l-3.978 5.663-1.895-1.19 3.976-5.662 1.896 1.19M69.783 43.79l-3.975 5.664-1.896-1.19 3.975-5.662 1.896 1.19M77.796 39.145L73.82 44.81l-1.896-1.19 3.976-5.664 1.896 1.19M73.062 45.855l-3.976 5.664-1.896-1.19 3.976-5.663 1.896 1.188M81.073 41.21l-3.975 5.663-1.896-1.188 3.975-5.663 1.896 1.187M76.34 47.92l-3.977 5.664-1.896-1.19 3.976-5.663 1.896 1.19" fill="#0A0B09"/>
  </g>
  <g id="my" fill="none" fill-rule="evenodd">
    <path d="M0 0h96v60H0V0z" fill="#F2F0F0"/>
    <path d="M0 0h96v4.688H0V0zM0 8.438h96v4.687H0V8.437zM0 16.875h96v4.688H0v-4.688zM0 25.313h96V30H0v-4.688zM0 33.75h96v4.688H0V33.75zM0 42.188h96v4.687H0v-4.688zM0 50.625h96v4.688H0v-4.688z" fill="#D82237"/>
    <path d="M0 0h60.48v33.75H0V0z" fill="#203B83"/>
    <path d="M29.083 27.574c-6.184 0-11.195-4.815-11.195-10.755s5.01-10.755 11.195-10.755c2.178 0 4.208.6 5.927 1.633-2.37-2.194-5.592-3.545-9.144-3.545-7.282 0-13.186 5.67-13.186 12.666 0 6.995 5.904 12.666 13.186 12.666 3.552 0 6.774-1.35 9.144-3.545a11.472 11.472 0 0 1-5.927 1.634" fill="#FACA21"/>
    <path d="M38.196 12.627l.995-6.106.997 6.107 3.828-5.15-1.99 5.96 5.82-3.017-4.442 4.487 6.51-.368-6.05 2.28 6.05 2.28-6.51-.44 4.442 4.707-5.82-3.09 1.914 5.885-3.753-5.223-.92 6.325-1.07-6.252-3.753 5.002 1.914-5.81-5.82 3.088 4.595-4.56-6.586.44 6.05-2.28-6.128-2.28 6.586.44-4.595-4.633 5.898 3.09-1.99-5.885 3.828 5.002" fill="#FACA21"/>
  </g>
  <g id="mx" fill="none" fill-rule="evenodd">
    <path d="M0 0h96v60H0V0z" fill="#F2F0F0"/>
    <path d="M0 0h31.68v60H0V0z" fill="#00603F"/>
    <path d="M64.32 0H96v60H64.32V0z" fill="#DA2F2A"/>
    <g transform="translate(35 17)">
      <ellipse fill="#687233" cx="8.793" cy="21" rx="2" ry="1"/>
      <path d="M15.5 17c1.38 0 2.5-.672 2.5-1.5S16.88 14 15.5 14c-.65 0-1.314.81-1.867 1.227-.623.467-1.1.566-1.1 1.005 0 .828 1.586.768 2.967.768zm-5.534-3c1.38 0 2.5-.672 2.5-1.5s-1.12-1.5-2.5-1.5c-.65 0-1.314.81-1.868 1.227-.622.467-1.098.566-1.098 1.005C7 14.06 8.585 14 9.966 14z" fill="#F7C340"/>
      <ellipse fill="#007D7C" cx="15" cy="17" rx="2" ry="1"/>
      <ellipse fill="#007D7C" transform="rotate(-26 18.204 16.705)" cx="18.204" cy="16.705" rx="2" ry="1"/>
      <path d="M11.932 20.42c.33 0 1.6.17 2.457 0 .442-.088 1.594-.83 1.96-.994 1.308-.59 1.346-.93 1.346-1.232 0-.21-.95.373-2.02.357C13.943 18.528 11.682 18 11 18c-.464 0-1.08.152-1.946-.154-.984-.348-2.195-1.14-2.195-.806 0 .552 3.967 3.38 5.07 3.38z" fill="#00A9BE"/>
      <ellipse fill="#EFA055" cx="12.5" cy="18.5" rx="2.5" ry="1.5"/>
      <path d="M14.848 9.402c1.208 1.603.195-1.296 3.578 1.336 3.382 2.633 2.304 4.436 2.966 3.937 1.402-1.056.19-5.98-1.105-8.116-1.293-2.138-7.198-5.44-7.365-3.713-.168 1.727-.362 3.517 1.926 6.554z" fill="#814226"/>
      <ellipse fill="#007D7C" cx="11" cy="16" rx="2" ry="1"/>
      <ellipse fill="#007D7C" transform="rotate(6 8.855 15.668)" cx="8.855" cy="15.668" rx="2" ry="1"/>
      <path d="M6.693 7.02c.312.588 2.414.26 2.277.354-2.274 1.56-2.823 4.113-1.073 4.237 1.75.126 1.74 1.32 1.913 1.128.1-.11.496-.875.33-1.65-.146-.685-1.855.093-2.26-.54-.07-.11-.278-.448.096-.913.53-.656 1.75-1.35 1.754-1.947.003-.58.415-.974-.104-1.48-.064-.06-2.31.228-2.366.182-.028-.025.4-1.2.31-1.28-.68-.613-.925-.18-1.19.312-.136.25 0 1.008.313 1.597z" fill="#9FA66A"/>
      <path d="M7.164 13.67c.705.03 1.405.21 1.24-.563-.147-.686-.83-.148-.937-.63-.038-.174-.03-.32-.174-.707-.042-.11-.963-.54-1.002-.902-.025-.246.133-.48.208-.748.068-.244-.015-.845-.267-.982-.47-.257-1.295.092-1.187.285.036.064.343.943.423 1.163.163.446-.026.48.24.932.146.25.718.53.864.778.002-.58-.11 1.346.594 1.375z" fill="#9FA66A"/>
      <path d="M7.826 6.212c-.33.742.447 1.563.4 1.732-.167.617 1.69-2.28 2.458-1.508.57.57-2.18 2.624-.012 5.336 1.777 2.22 3.094 3.378 4.122 2.92.143-.064.4-.886 2.052.116 1.65 1.003 3.07.49 3.07-.11-.003-1.098-4.802-4.297-5.488-5.837-1.23-2.76-2.33-4.743-3.566-4.924-.804-.118-2.598 1.292-3.036 2.277z" fill="#814226"/>
      <ellipse fill="#007D7C" transform="rotate(42 6.405 14.406)" cx="6.405" cy="14.406" rx="1.658" ry="1"/>
      <ellipse fill="#687233" cx="16.697" cy="21.214" rx="2" ry="1"/>
      <ellipse fill="#687233" transform="rotate(-39 20.184 19.036)" cx="20.184" cy="19.036" rx="2" ry="1"/>
      <ellipse fill="#687233" transform="rotate(-56 22.963 15.926)" cx="22.963" cy="15.926" rx="2" ry="1"/>
      <ellipse fill="#687233" transform="rotate(-73 24.113 12.046)" cx="24.113" cy="12.046" rx="2" ry="1"/>
      <ellipse fill="#687233" transform="rotate(-141 12.557 0)" cx="5.816" cy="19.036" rx="2" ry="1"/>
      <ellipse fill="#687233" transform="rotate(-124 11.504 0)" cx="3.037" cy="15.926" rx="2" ry="1"/>
      <ellipse fill="#687233" transform="rotate(-107 10.8 0)" cx="1.887" cy="12.046" rx="2" ry="1"/>
    </g>
  </g>
  <g id="nl" fill="none" fill-rule="evenodd">
    <path d="M0 20.308h96v19.384H0V20.308z" fill="#F2F0F0"/>
    <path d="M0 0h96v20.308H0V0z" fill="#DA2F2A"/>
    <path d="M0 39.692h96V60H0V39.692z" fill="#2A4086"/>
  </g>
  <g id="no" fill="none" fill-rule="evenodd">
    <path d="M0 0h96v60H0V0z" fill="#DA2F2A"/>
    <path d="M96 25.532H32.914V0h-10.97v25.532H0v10.213h21.943V60h10.97V35.745H96V25.532" fill="#F1EFEF"/>
    <path d="M96 28.085H30.17V0h-5.484v28.085H0v5.106h24.686V60h5.485V33.19H96" fill="#2A4086"/>
  </g>
  <g id="nz" fill="none" fill-rule="evenodd">
    <path d="M0 0h96v60H0V0z" fill="#282A68"/>
    <path d="M69.386 46.258h3.457l1.122-3.132 1.123 3.05h3.457l-2.766 2.06 1.123 3.298-2.938-2.06-2.85 2.06L72.15 48.4l-2.764-2.142M55.934 25.172h3.028l.983-2.743.984 2.67h3.028l-2.424 1.806.985 2.888-2.575-1.805-2.498 1.804.91-2.744-2.423-1.878" fill="#FFF"/>
    <path d="M56.994 25.564h2.227l.725-2.018.724 1.966h2.227l-1.78 1.33.723 2.124-1.895-1.33-1.837 1.33.668-2.02-1.782-1.382" fill="#D8232F"/>
    <path d="M70.013 11.74h3.03l.983-2.743.984 2.67h3.027l-2.423 1.807.984 2.888-2.572-1.805-2.5 1.805.91-2.744-2.423-1.878" fill="#FFF"/>
    <path d="M71.074 12.132H73.3l.726-2.02.723 1.968h2.228l-1.783 1.327.724 2.127-1.894-1.33-1.84 1.33.67-2.02-1.782-1.382" fill="#D8232F"/>
    <path d="M82.35 21.795h2.744l.89-2.486.892 2.42h2.742l-2.194 1.635.892 2.616-2.332-1.635-2.26 1.636.82-2.485-2.193-1.7" fill="#FFF"/>
    <path d="M70.484 46.66h2.627l.855-2.382.855 2.318h2.627l-2.1 1.567.85 2.507-2.232-1.567-2.168 1.567.788-2.38-2.1-1.63M83.412 22.187h1.94l.632-1.76.633 1.714h1.94l-1.552 1.16.63 1.852-1.65-1.158-1.603 1.158.582-1.76-1.552-1.205" fill="#D8232F"/>
    <g>
      <path d="M0 0h48v29.538H0V0z" fill="#282A68"/>
      <path d="M27.986 0v8.987L42.606 0H48v3.39L37.452 9.944H48v9.723H37.452L48 26.224l-.025 3.295-5.428.018-14.56-8.986v8.986h-7.973v-8.986l-14.56 8.986H0v-3.314l10.668-6.556H0V9.87h10.668L.018 3.39.014.01l5.44.014 14.56 9.037V0h7.973" fill="#F2F0F0"/>
      <g fill="#DA2F33">
        <path d="M48 11.746H26.387V0h-4.793v11.746H0v5.897h21.594v11.895h4.793V17.643H48v-5.897"/>
        <path d="M47.995 27.41L35.49 19.994h-3.33L48 29.538l-.005-2.13zM0 29.538h3.38l15.82-9.46-3.614-.083L0 29.538M0 2.107V0l15.84 9.543H12.6L0 2.107M48 0h-3.555L28.8 9.543h3.362L48 0"/>
      </g>
    </g>
  </g>
  <g id="pl" fill="none" fill-rule="evenodd">
    <path d="M0 0h96v60H0V0z" fill="#F2F0F0"/>
    <path d="M0 29.538h96V59.92H0V29.54z" fill="#DA2F2A"/>
  </g>
  <g id="pt" fill="none" fill-rule="evenodd">
    <path d="M0 0h39v60H0V0z" fill="#1F8040"/>
    <path d="M38.137 0H95.05v60H38.137V0z" fill="#DA2F2A"/>
    <g transform="translate(23 16)">
      <circle stroke="#F2E81C" cx="15.5" cy="14.5" r="14.5"/>
      <path fill="#F2E81C" d="M15 0h1v29h-1z"/>
      <path d="M15.965 13C5.415 13 1 15 1 15v-1s5.306-2 14.965-2C25.85 12 30 14 30 14v1s-3.486-2-14.035-2z" fill="#F2E81C"/>
      <path d="M16.647 17.77c-9.735 3.352-12.16 5.647-12.16 5.647l-1.325-.946s4.246-2.576 13.16-5.645c9.12-3.14 13.603-2.57 13.603-2.57l.326.947s-3.867-.784-13.603 2.568zM15.965 7C5.415 7 3 9 3 9V7s3.306-2 12.965-2C25.85 5 28 7 28 7l1 2s-2.486-2-13.035-2z" fill="#F2E81C"/>
      <path d="M14.965 24C4.415 24 3 22 3 22l1 2s1.306 2 10.965 2C24.85 26 27 24 27 24l1-2s-2.486 2-13.035 2z" fill="#F2E81C"/>
      <path d="M12.674 18.84C1.25 14.457 1.434 14 1.434 14l-.634.283s.697 2.41 11.158 6.425c10.703 4.11 13.75 3.136 13.75 3.136l1.8-1.45s-3.41.832-14.834-3.553z" fill="#F2E81C"/>
      <path d="M14.804 12.845c-11.82 3.167-13.38 1.507-13.38 1.507l.222.827s2.853 2.497 13.676-.403c11.074-2.967 13.43-5.843 13.43-5.843l-.42-1.576s-1.708 2.32-13.528 5.487z" fill="#F2E81C"/>
      <path fill="#F2E81C" d="M2 8.544L3.59 6l24.593 15.367-1.59 2.544z"/>
      <path d="M6 6h18v10s0 10-9.137 10S6 16 6 16V6z" stroke="#D92F33" stroke-width="3" fill="#FFF"/>
      <path d="M14 11h2v1.11s0 1.112-1.015 1.112-.985-1.11-.985-1.11V11z" fill="#253879"/>
      <path fill="#F2E81C" d="M14 7h2v1h-2zM21 7h2v1h-2zM7 7h2v1H7zM9 22h2v1H9zM19 22h2v1h-2zM21 14h2v1h-2zM7 14h2v1H7z"/>
      <path d="M14 15h2v1.11s0 1.112-1.015 1.112-.985-1.11-.985-1.11V15zM14 19h2v1.11s0 1.112-1.015 1.112-.985-1.11-.985-1.11V19zM17 15h2v1.11s0 1.112-1.015 1.112-.985-1.11-.985-1.11V15zM11 15h2v1.11s0 1.112-1.015 1.112-.985-1.11-.985-1.11V15z" fill="#253879"/>
    </g>
  </g>
  <g id="ru" fill="none" fill-rule="evenodd">
    <path d="M0 20.308h96v19.384H0V20.308z" fill="#2A4086"/>
    <path d="M0 0h96v20.308H0V0z" fill="#F2F0F0"/>
    <path d="M0 39.692h96V60H0V39.692z" fill="#DA2F2A"/>
  </g>
  <g id="se" fill="none" fill-rule="evenodd">
    <path d="M0 0h96v60H0V0z" fill="#005293"/>
    <path d="M96 25.532H32.914V0h-10.97v25.532H0v10.213h21.943V60h10.97V35.745H96V25.532" fill="#FECB00"/>
  </g>
  <g id="sg" fill="none" fill-rule="evenodd">
    <path d="M0 29h96v31H0V29z" fill="#F2F0F0"/>
    <path d="M0 0h96v30.383H0V0z" fill="#DA2F2A"/>
    <path d="M26.59 12.48c-.206.146-.327.062-.267-.186l.224-.93a.842.842 0 0 0-.242-.76l-.676-.588c-.194-.168-.143-.31.11-.317l.947-.028a.68.68 0 0 0 .592-.462l.295-1.015c.073-.246.202-.25.288-.01l.357 1.004c.086.24.365.44.618.443l.966.01c.254 0 .304.142.114.31l-.737.648c-.19.17-.288.51-.217.756l.235.82c.07.245-.048.337-.265.203l-.784-.49a.755.755 0 0 0-.772.027l-.787.562M22.42 16.126c-.207.148-.326.065-.267-.185l.223-.93a.845.845 0 0 0-.24-.757l-.677-.59c-.193-.166-.144-.31.11-.316l.947-.028a.682.682 0 0 0 .593-.46l.296-1.018c.07-.246.202-.25.288-.007l.357 1c.087.243.364.442.618.445l.967.01c.253.003.304.142.112.31l-.735.65a.8.8 0 0 0-.22.755l.235.817c.072.248-.048.34-.264.204l-.785-.486a.755.755 0 0 0-.77.025l-.788.56M30.843 16.126c-.207.148-.327.065-.267-.185l.224-.93a.85.85 0 0 0-.242-.757l-.677-.59c-.19-.166-.142-.31.112-.316l.947-.028a.682.682 0 0 0 .592-.46l.296-1.018c.073-.246.202-.25.288-.007l.357 1c.086.243.363.442.617.445l.967.01c.253.003.304.142.112.31l-.736.65a.808.808 0 0 0-.22.755l.237.817c.07.248-.05.34-.264.204l-.786-.486a.755.755 0 0 0-.77.025l-.787.56M29.39 21.122c-.206.15-.327.065-.266-.185l.222-.93a.847.847 0 0 0-.24-.76l-.678-.586c-.192-.167-.142-.31.11-.317l.95-.026a.684.684 0 0 0 .592-.462l.296-1.016c.072-.248.2-.25.288-.01l.356 1.002a.72.72 0 0 0 .617.446l.967.008c.254.003.305.143.113.31l-.735.65a.808.808 0 0 0-.22.755l.235.818c.07.248-.048.34-.264.206l-.785-.488a.753.753 0 0 0-.77.025l-.787.562M24.197 21.122c-.207.15-.327.065-.267-.185l.224-.93a.847.847 0 0 0-.242-.76l-.676-.586c-.193-.167-.143-.31.11-.317l.947-.026a.684.684 0 0 0 .593-.462l.296-1.016c.073-.248.202-.25.288-.01l.357 1.002a.72.72 0 0 0 .618.446l.966.008c.254.003.305.143.113.31l-.735.65a.804.804 0 0 0-.218.755l.235.818c.07.248-.048.34-.265.206l-.786-.488a.753.753 0 0 0-.77.025l-.787.562" fill="#ECF2FB"/>
    <path d="M22.065 21.756l-.033.014c-.362.198-.745.37-1.148.51-3.863 1.332-8.06-.762-9.376-4.677a7.572 7.572 0 0 1-.394-2.278c-.03-.757.052-1.53.263-2.3 1.088-3.984 5.16-6.322 9.093-5.22.41.116.802.265 1.175.443l.033.01a.25.25 0 0 0 .31-.178l-.107-.282a9.112 9.112 0 0 0-3.268-1.682C13.675 4.73 8.562 7.666 7.195 12.67a9.506 9.506 0 0 0 .16 5.535c1.65 4.915 6.922 7.545 11.77 5.87a9.14 9.14 0 0 0 3.17-1.87l.09-.29a.25.25 0 0 0-.32-.16" fill="#ECF2FB"/>
  </g>
  <g id="th" fill="none" fill-rule="evenodd">
    <path d="M0 0h96v59.09H0V0z" fill="#F2F0F0"/>
    <path d="M0 20.116h96v18.86H0v-18.86z" fill="#282B69"/>
    <path d="M0 49.033h96V59.09H0V49.034zM0 0h96v10.058H0V0z" fill="#DA2F2A"/>
  </g>
  <g id="tr" fill="none" fill-rule="evenodd">
    <path d="M0 0h96v60H0V0z" fill="#DA2F2A"/>
    <path d="M37.64 41.747c-6.925 0-12.54-5.293-12.54-11.82 0-6.53 5.615-11.82 12.54-11.82 4.42 0 8.3 2.156 10.535 5.415-2.547-5.066-8.018-8.57-14.36-8.57-8.77 0-15.884 6.704-15.884 14.975 0 8.27 7.114 14.974 15.885 14.974 6.342 0 11.813-3.503 14.36-8.57-2.234 3.258-6.116 5.417-10.535 5.417" fill="#F1EFF0"/>
    <path d="M51.707 22.83l3.466 4.28 5.495-1.577-3.345 4.394 3.345 4.28-5.376-1.58-3.466 4.396-.12-5.407-5.137-1.69 5.256-1.577-.12-5.52" fill="#F1EFF0"/>
  </g>
  <g id="za" fill="none" fill-rule="evenodd">
    <path d="M0 0h95.05v60H0V0z" fill="#1F8040"/>
    <path d="M14.936 0H95.05v24.255H42.093L14.936 0z" fill="#FFF"/>
    <path d="M20.368 0H95.05v20.426h-51.6L20.37 0z" fill="#DA2F2A"/>
    <path d="M14.936 60H95.05V35.745H42.093L14.936 60z" fill="#FFF"/>
    <path d="M20.368 60H95.05V39.574h-51.6L20.37 60z" fill="#282B69"/>
    <path d="M31.23 30.638L.164 2.553 0 58.723l31.23-28.085z" fill="#F8B938"/>
    <path d="M25.8 30.638L.162 7.66 0 53.617l25.8-22.98z" fill="#434B58"/>
  </g>
  <g id="world">
      <path d="M0,0h10.1v0.3L9.8,0.4l0.1,0.1L9.5,0.6C9.3,0.7,9.3,0.8,9.3,0.8c0,0,0.1,0,0.3,0.1l0.3-0.1l0.4,0.4L11,1.5
				l-0.1-0.3l0.3,0.1l0.1-0.2l-0.2-0.2l-0.3-0.2l-0.1-0.3c0.1,0,0.1,0,0.2,0c0,0,0.2,0.1,0.3,0.3l0.3-0.4C11.2,0.1,11.1,0,11.1,0
				c0,0,6,0,17.9,0v8.2l-1-0.1l-0.1-0.2l-0.1,0.1h-0.2l-0.4-0.2l-0.1-0.2l-0.2-0.2l-0.1,0.1v0.3l0.3,0.4l0.1,0v0.2l0.3,0L27.9,8
				l0.1,0.3l0.3,0.1l0.1,0.2l-0.1,0.3L28,9.1l-0.7,0.5l-1.1,0.5l-1.6-2.6l0.6,1.3v0.3l0.3,0.2l0,0.4l0.3,0.2l0.4,0.6l0.9-0.3v0.5
				l-0.4,0.6l-0.3,0.4L26,12l-0.5,0.7l0.2,0.9l-0.1,0.7L24.9,15l0.1,0.6l-0.4,0.2v0.3l-0.7,1l-1.1,0.2L22.2,16
				c-0.1-0.3-0.1-0.5-0.2-0.7c0-0.1-0.2-0.4-0.4-0.9l0.4-0.7l-0.2-1l-0.5-0.6l0.1-0.6l-0.6-0.2L20.6,11l-0.8,0.2h-0.9L17.7,10
				L18,9.4l-0.1-0.6l0.5-1l0.4-0.2l0.2-0.6l0.5-0.6l0.5,0l0.9-0.3l0.2,0l0.2-0.1l0.2,0.1l0.2-0.1l0.2,0l-0.1,0.1l0.1,0.1l-0.1,0.2
				l0.1,0.2l0.3,0l0.4,0.3l0.2,0.1l0.1,0L22.9,7l0.3-0.1l0.3,0.2L24,7.2l0.4-0.1l0.4,0.1L25,6.8l0.1-0.5l-0.1,0l-0.1,0l-0.1,0.1
				h-0.1l-0.2-0.1l-0.2,0.1L24,6.3l-0.1-0.1c0,0,0,0,0-0.1c0,0-0.1,0-0.2-0.1c0,0,0.1,0,0.1-0.1c0,0,0-0.1,0-0.1l-0.1-0.1l0.4-0.1
				V5.5h0.3l0.2-0.1H25l0.2,0.1l0.5,0l0.2-0.1l0-0.2L25.4,5l-0.2-0.2l0.2-0.3l-0.4,0.2l0.2,0.1l-0.3,0.2l-0.4-0.4l-0.3,0.3v0.3
				l-0.2,0.2L24,5.5l-0.3,0.1c-0.1-0.1-0.2-0.1-0.2-0.1c0,0-0.1,0-0.1,0.1c0,0,0,0.1,0,0.1c0,0,0,0-0.1-0.1v0.2l0.2,0.3l-0.1,0
				L23.3,6v0.2l-0.1,0l0-0.2l-0.3-0.4V5.4l-0.3-0.2l-0.2-0.1l-0.2-0.2l-0.1,0L22,4.7l-0.2,0.1v0.1c0,0.1,0,0.1,0.1,0.2
				c0,0,0.1,0.1,0.1,0.1l0.1,0.3l0.2,0c0,0,0,0,0,0.1c0,0,0.1,0.1,0.3,0.2l0,0.1l-0.1-0.1l-0.1,0v0.1l0.1,0.1c0,0-0.1,0-0.1,0
				s0,0.1-0.1,0.1l-0.1,0l0,0.1v0.2l-0.3-0.2l0-0.1l0.2,0L22.3,6l0.1-0.1l-0.1-0.1l-0.1-0.1l-0.3-0.2l-0.2-0.2l-0.3-0.4L21,5.1h-0.5
				v0.3l-0.3,0.2l-0.1,0.3l-0.3,0.3l-0.5,0.1l-0.1-0.2h-0.3l-0.1-0.3l0.1-0.3l0-0.4l0.2-0.1l0.8,0.1C20,4.9,20,4.8,20,4.7
				c0-0.1,0-0.1-0.1-0.2l-0.1-0.1l-0.3-0.2L20.3,4l0.1-0.2l0.3-0.2l0.2-0.3l0.4-0.1l-0.2-0.5l0.3-0.3l0.1,0.7l0.4,0l0.1,0.1L22.8,3
				C22.9,2.9,23,2.8,23,2.8c0,0,0-0.1,0-0.3l0.2-0.2l0.3,0.1L23.3,2l0.3-0.1h0.2l0.2-0.1c0-0.1,0-0.2,0-0.2c0,0-0.3,0.1-0.8,0.2
				l-0.2-0.2L23,1.2l0.6-0.5l-0.2-0.2l-0.4,0.1L23,0.9l-0.5,0.3l0.1,0.7l-0.2,0.3l0.1,0.2l-0.2,0.3L22,2.8l-0.4-0.9l-0.4,0.3
				l-0.3-0.1l0.1-0.8L22.2,0h-6.6l-0.2,0.3L15,0.4l-0.5,0.2v0.4l-0.2,0.1l-0.2,0.7l-0.6-0.2l-0.5-0.6l-0.3-0.6L12.7,0H8.8l0.1,0.2
				L8.4,0.4L8.2,0.4l0.1,0.1L8,0.6l0.1,0.1L8,0.9L7.7,1L7.6,1.2L7.4,1.3L7.1,1.6L7,2.2l0.2,0l0.4,0.4l0.8,0.4h0.3l0.1,0.5l0.3,0.3
				l0.2-0.2L9.1,3.1l0.4-0.4L9.2,2.1l0.3-1l0.2,0.3H10l0.5,0.4l0.3,0.5l0.3-0.4l0.4,0.8l0.7,0.5l0.2,0.4l-0.7,0.4l-0.5,0.3l-0.1,0.3
				l0.4,0.3l-0.5,0.3l-0.2-0.2l-0.4,0.3l0,0.3L9.8,5.9L9.6,6.6L8.9,7.2l0,0.3L9,7.7l0.1,0.4L8.9,8.2L8.7,7.9L8.6,7.5L8.5,7.4
				L8.4,7.5L8.2,7.4L8,7.4l-0.3,0l0.1,0.1v0.1H7.7L7.4,7.5l-0.1,0l-0.2,0L6.9,7.7l-0.1,0L6.6,7.9l0.1,0.3L6.6,8.5l0.1,0.4l0.4,0.5
				l0.4-0.1l0.2-0.5h0.4L7.9,9.7l0.7,0.1l0,0.7l0.3,0.3l0.3-0.1l0.3,0.2l0.2-0.4l0.6-0.3l-0.1,0.5h0.1v-0.3l0.2,0
				c0.2,0.1,0.3,0.1,0.4,0.2c0.1,0,0.3,0,0.5,0l0.8,0.6l0.7,0.1l0.3,0.6l0.4,0.2c0.2,0.2,0.3,0.3,0.4,0.3c0,0,0.3,0.1,0.6,0.1
				l0.7,0.4v0.4L14.8,14c0,0.3,0,0.4,0,0.6c0,0.1-0.1,0.4-0.3,0.8l-1,0.5v0.5l-0.8,1.1h-0.6l0.2,0.4L12.2,18H10l0.3-0.7v-0.6
				l0.2-1.1l0.1-0.4l-0.1-0.4l-0.8-0.5l0-0.2l-0.3-0.5l-0.1-0.2l-0.1,0l0-0.1l-0.1,0l-0.1-0.3l0.2-0.3l-0.1,0v-0.2l0.1-0.3l0.4-0.4
				l-0.2-0.6l-0.1-0.1l-0.2,0.1l0,0.1L9,11l-0.2-0.1l-0.2,0l-0.2-0.2H8.4l0-0.2L8,10l-0.1,0L7.4,9.9L7.2,9.7L7,9.6L6.9,9.7L6.7,9.7
				H6.6L6.4,9.5H6.2L6.1,9.4L5.9,9.3L5.6,9.1l0.1-0.2L5.4,8.5L5.1,8.2L5,8L4.6,7.6L4.5,7.3L4.3,7.2l0.1,0.4l0.1,0.1l0.1,0.2l0.1,0.2
				l0.2,0.4L5,8.5l0,0.1L4.7,8.3V8.1L4.5,8L4.3,7.9l0.1,0L4.1,7.5L4,7L3.8,6.8L3.5,6.7L3,5.7l0-1.1L2.9,4.4L3,4.3l0.2,0.1V4.2
				L2.6,3.8L2.2,3.2L1.7,2.5L1,2L0,1.8V0z"/>
  </g>
</svg>